<svg xmlns="http://www.w3.org/2000/svg" width="1313" height="970" viewBox="0 0 1313 970" preserveAspectRatio="xMidYMid meet" role="img" aria-label="Prince Frederick Village two-bedroom floor plan">
<defs><style>
    .fp{fill:#FFFFFF}
    .w{fill:none;stroke:#2C3E2D;stroke-width:7;stroke-linecap:butt}
    .wo{fill:none;stroke:#2C3E2D;stroke-width:10;stroke-linecap:butt}
    .d{fill:none;stroke:#7C9880;stroke-width:2.5;stroke-dasharray:5 6}
    .arc{fill:none;stroke:#5E7D63;stroke-width:3}
    .win{fill:none;stroke:#2C3E2D;stroke-width:2.5}
    .st{fill:none;stroke:#2C3E2D;stroke-width:2.5}
    .rm{fill:#22331F;font-family:'Helvetica Neue',Arial,sans-serif;font-size:25px;font-style:italic;text-anchor:middle}
    .cl{fill:#4A5C4D;font-family:'Helvetica Neue',Arial,sans-serif;font-size:18px;font-style:italic;text-anchor:middle}
    .sm{fill:#4A5C4D;font-family:'Helvetica Neue',Arial,sans-serif;font-size:14px;font-style:italic;text-anchor:middle}
  </style></defs>
<rect class="fp" x="10" y="18" width="1275" height="931"/>
<path class="w" d="M320,44 V283 M320,390 V959 M478,808 V959 M555,24 V258 M632,413 V920 M632,925 V959 M708,24 V259 M863,43 V86 M863,191 V601 M863,898 V959 M28,171 H48 M57,171 H280 M315,251 H390 M551,251 H574 M693,251 H716 M729,251 H838 M316,407 H527 M631,407 H849"/>
<path class="d" d="M530,403 H614 M530,411 H614 M316,283 V390 M324,283 V390 M390,247 H551 M390,255 H551 M574,247 H693 M574,255 H693 M335,801 H462 M335,809 H462 M856,89 V173 M864,89 V173 M856,608 V880 M864,608 V880"/>
<path class="arc" d="M1285,68 H1161 M1161,68 A124,124 0 0 0 1285,192"/>
<path class="win" d="M104,944 H227 M104,949 H227 M104,954 H227 M104,942 V956 M227,942 V956"/>
<path class="win" d="M483,944 H640 M483,949 H640 M483,954 H640 M483,942 V956 M640,942 V956"/>
<path class="win" d="M895,944 H1041 M895,949 H1041 M895,954 H1041 M895,942 V956 M1041,942 V956"/>
<path class="wo" d="M10,18 H1285 V68 M1285,192 V949 H1041 M895,949 H640 M483,949 H227 M104,949 H10 V18"/>
<text class="cl" x="197" y="113">Closet</text>
<text class="cl" x="430" y="131">Bathroom</text>
<text class="cl" x="621" y="131">Closet</text>
<text class="cl" x="776" y="131">Closet</text>
<text class="rm" x="1063" y="382">Living Room</text>
<text class="rm" x="185" y="561">Bedroom</text>
<text class="rm" x="466" y="680">Bedroom</text>
<text class="cl" x="615" y="346">Hall</text>
<text class="rm" x="752" y="704">Kitchen</text>
<text class="sm" x="382" y="835">Closet</text>
</svg>